# xmcd
# 
# Track frame offsets:
#     150
#     22096
#     41498
#     63016
#     86228
#     112191
#     124918
#     144926
#     161790
#     189090
#     207610
#     237081
#     263853
# 
# Disc length: 4078
# 
# Revision: 1
# Processed by: cddbd v1.5.2PL0 Copyright (c) Steve Scherf et al.
# Submitted via: fre:ac v1.0.17
# 
DISCID=b90fec0d
DTITLE=Johnny Winter - ROOTS
DYEAR=2011
DGENRE=blues
TTITLE0=T-Bone Shuffle (featuring Sonny Landreth)
TTITLE1=Further On Up The Road (featuring Jimmy Vivino)
TTITLE2=Done Somebody Wrong (featuring Warren Haynes)
TTITLE3=Got My Mojo Workin' (featuring Frank Latorre)
TTITLE4=Last Night (featuring John Popper)
TTITLE5=Maybellene (featuring Vince Gill)
TTITLE6=Bright Lights, Big City (featuring Susan Tedeschi)
TTITLE7=Honky Tonk (featuring Edgar Winter)
TTITLE8=Dust My Broom (featuring Derek Trucks)
TTITLE9=Short Fat Fannie (featuring Paul Nelson)
TTITLE10=Come Back Baby (featuring John Medeski)
TTITLE11=Crossroads (Live in Paris 1983)
TTITLE12=Highway 61 Revisited (Live in Paris 1983)
EXTD=
EXTT0=
EXTT1=
EXTT2=
EXTT3=
EXTT4=
EXTT5=
EXTT6=
EXTT7=
EXTT8=
EXTT9=
EXTT10=
EXTT11=
EXTT12=
PLAYORDER=
